<svg width="251" height="50" viewBox="0 0 251 50" fill="none" xmlns="http://www.w3.org/2000/svg">
<path d="M59.4482 37L58.1914 32.4648C58.0391 31.9844 57.7637 30.8682 57.3652 29.1162H57.2861C56.9463 30.6982 56.6768 31.8203 56.4775 32.4824L55.1855 37H52.9004L50.1758 27.2793H52.2852L53.5244 32.0693C53.8057 33.2529 54.0049 34.2666 54.1221 35.1104H54.1748C54.2334 34.6826 54.3213 34.1934 54.4385 33.6426C54.5615 33.0859 54.667 32.6699 54.7549 32.3945L56.2314 27.2793H58.499L59.9316 32.3945C60.0195 32.6816 60.1279 33.1211 60.2568 33.7129C60.3916 34.3047 60.4707 34.7646 60.4941 35.0928H60.5645C60.6523 34.3721 60.8574 33.3643 61.1797 32.0693L62.4365 27.2793H64.5107L61.7686 37H59.4482ZM68.2549 37H66.1895V27.2793H68.2549V37ZM66.0664 24.7041C66.0664 24.335 66.166 24.0508 66.3652 23.8516C66.5703 23.6523 66.8604 23.5527 67.2354 23.5527C67.5986 23.5527 67.8799 23.6523 68.0791 23.8516C68.2842 24.0508 68.3867 24.335 68.3867 24.7041C68.3867 25.0557 68.2842 25.334 68.0791 25.5391C67.8799 25.7383 67.5986 25.8379 67.2354 25.8379C66.8604 25.8379 66.5703 25.7383 66.3652 25.5391C66.166 25.334 66.0664 25.0557 66.0664 24.7041ZM74.8379 35.5059C75.3418 35.5059 75.8457 35.4268 76.3496 35.2686V36.8242C76.1211 36.9238 75.8252 37.0059 75.4619 37.0703C75.1045 37.1406 74.7324 37.1758 74.3457 37.1758C72.3887 37.1758 71.4102 36.1445 71.4102 34.082V28.8438H70.083V27.9297L71.5068 27.1738L72.21 25.1172H73.4844V27.2793H76.2529V28.8438H73.4844V34.0469C73.4844 34.5449 73.6074 34.9141 73.8535 35.1543C74.1055 35.3887 74.4336 35.5059 74.8379 35.5059ZM86.8525 37H84.7783V31.0234C84.7783 30.2734 84.626 29.7139 84.3213 29.3447C84.0225 28.9756 83.5449 28.791 82.8887 28.791C82.0215 28.791 81.3828 29.0518 80.9727 29.5732C80.5684 30.0889 80.3662 30.9561 80.3662 32.1748V37H78.3008V23.3242H80.3662V26.7959C80.3662 27.3525 80.3311 27.9473 80.2607 28.5801H80.3926C80.6738 28.1113 81.0635 27.748 81.5615 27.4902C82.0654 27.2324 82.6514 27.1035 83.3193 27.1035C85.6748 27.1035 86.8525 28.29 86.8525 30.6631V37Z" fill="#828282"/>
<path d="M145.442 27.1035C146.655 27.1035 147.599 27.543 148.272 28.4219C148.952 29.3008 149.292 30.5342 149.292 32.1221C149.292 33.7158 148.949 34.958 148.264 35.8486C147.578 36.7334 146.626 37.1758 145.407 37.1758C144.177 37.1758 143.222 36.7334 142.542 35.8486H142.401L142.023 37H140.477V23.3242H142.542V26.5762C142.542 26.8164 142.53 27.1738 142.507 27.6484C142.483 28.123 142.466 28.4248 142.454 28.5537H142.542C143.198 27.5869 144.165 27.1035 145.442 27.1035ZM144.906 28.791C144.074 28.791 143.474 29.0371 143.104 29.5293C142.741 30.0156 142.554 30.833 142.542 31.9814V32.1221C142.542 33.3057 142.729 34.1641 143.104 34.6973C143.479 35.2246 144.092 35.4883 144.941 35.4883C145.674 35.4883 146.228 35.1982 146.603 34.6182C146.983 34.0381 147.174 33.2002 147.174 32.1045C147.174 29.8955 146.418 28.791 144.906 28.791ZM150.215 27.2793H152.465L154.442 32.79C154.741 33.5752 154.94 34.3135 155.04 35.0049H155.11C155.163 34.6826 155.26 34.293 155.4 33.8359C155.541 33.373 156.285 31.1875 157.633 27.2793H159.865L155.708 38.292C154.952 40.3135 153.692 41.3242 151.929 41.3242C151.472 41.3242 151.026 41.2744 150.593 41.1748V39.54C150.903 39.6104 151.258 39.6455 151.656 39.6455C152.652 39.6455 153.353 39.0684 153.757 37.9141L154.117 37L150.215 27.2793ZM176.688 30.4521C176.688 32.5732 176.099 34.1963 174.921 35.3213C173.743 36.4404 172.047 37 169.832 37H166.237V24.1504H170.21C172.255 24.1504 173.846 24.7012 174.982 25.8027C176.119 26.9043 176.688 28.4541 176.688 30.4521ZM174.473 30.5225C174.473 27.4463 173.034 25.9082 170.157 25.9082H168.338V35.2334H169.832C172.926 35.2334 174.473 33.6631 174.473 30.5225ZM186.865 33.5107C186.865 34.6533 186.452 35.5498 185.626 36.2002C184.8 36.8506 183.66 37.1758 182.207 37.1758C180.754 37.1758 179.564 36.9502 178.639 36.499V34.5127C179.225 34.7881 179.846 35.0049 180.502 35.1631C181.164 35.3213 181.779 35.4004 182.348 35.4004C183.18 35.4004 183.792 35.2422 184.185 34.9258C184.583 34.6094 184.782 34.1846 184.782 33.6514C184.782 33.1709 184.601 32.7637 184.237 32.4297C183.874 32.0957 183.124 31.7002 181.987 31.2432C180.815 30.7686 179.989 30.2266 179.509 29.6172C179.028 29.0078 178.788 28.2754 178.788 27.4199C178.788 26.3477 179.169 25.5039 179.931 24.8887C180.692 24.2734 181.715 23.9658 182.998 23.9658C184.229 23.9658 185.453 24.2354 186.672 24.7744L186.004 26.4883C184.861 26.0078 183.842 25.7676 182.945 25.7676C182.266 25.7676 181.75 25.917 181.398 26.2158C181.047 26.5088 180.871 26.8984 180.871 27.3848C180.871 27.7188 180.941 28.0059 181.082 28.2461C181.223 28.4805 181.454 28.7031 181.776 28.9141C182.099 29.125 182.679 29.4033 183.517 29.749C184.46 30.1416 185.151 30.5078 185.591 30.8477C186.03 31.1875 186.353 31.5713 186.558 31.999C186.763 32.4268 186.865 32.9307 186.865 33.5107ZM194.819 25.7676C193.612 25.7676 192.663 26.1953 191.972 27.0508C191.28 27.9062 190.935 29.0869 190.935 30.5928C190.935 32.1689 191.266 33.3613 191.928 34.1699C192.596 34.9785 193.56 35.3828 194.819 35.3828C195.364 35.3828 195.892 35.3301 196.401 35.2246C196.911 35.1133 197.441 34.9727 197.992 34.8027V36.6045C196.984 36.9854 195.842 37.1758 194.564 37.1758C192.684 37.1758 191.239 36.6074 190.231 35.4707C189.224 34.3281 188.72 32.6963 188.72 30.5752C188.72 29.2393 188.963 28.0703 189.449 27.0684C189.941 26.0664 190.65 25.2988 191.576 24.7656C192.502 24.2324 193.589 23.9658 194.837 23.9658C196.149 23.9658 197.362 24.2412 198.476 24.792L197.72 26.541C197.286 26.3359 196.826 26.1572 196.34 26.0049C195.859 25.8467 195.353 25.7676 194.819 25.7676ZM215.57 37H213.461V31.208H207.537V37H205.437V24.1504H207.537V29.4062H213.461V24.1504H215.57V37ZM229.026 24.1504V32.4648C229.026 33.4141 228.821 34.2461 228.411 34.9609C228.007 35.6699 227.418 36.2178 226.645 36.6045C225.877 36.9854 224.957 37.1758 223.885 37.1758C222.291 37.1758 221.052 36.7539 220.167 35.9102C219.282 35.0664 218.84 33.9062 218.84 32.4297V24.1504H220.949V32.2803C220.949 33.3408 221.195 34.123 221.688 34.627C222.18 35.1309 222.936 35.3828 223.955 35.3828C225.936 35.3828 226.926 34.3428 226.926 32.2627V24.1504H229.026ZM239.723 33.5107C239.723 34.6533 239.31 35.5498 238.483 36.2002C237.657 36.8506 236.518 37.1758 235.064 37.1758C233.611 37.1758 232.422 36.9502 231.496 36.499V34.5127C232.082 34.7881 232.703 35.0049 233.359 35.1631C234.021 35.3213 234.637 35.4004 235.205 35.4004C236.037 35.4004 236.649 35.2422 237.042 34.9258C237.44 34.6094 237.64 34.1846 237.64 33.6514C237.64 33.1709 237.458 32.7637 237.095 32.4297C236.731 32.0957 235.981 31.7002 234.845 31.2432C233.673 30.7686 232.847 30.2266 232.366 29.6172C231.886 29.0078 231.646 28.2754 231.646 27.4199C231.646 26.3477 232.026 25.5039 232.788 24.8887C233.55 24.2734 234.572 23.9658 235.855 23.9658C237.086 23.9658 238.311 24.2354 239.529 24.7744L238.861 26.4883C237.719 26.0078 236.699 25.7676 235.803 25.7676C235.123 25.7676 234.607 25.917 234.256 26.2158C233.904 26.5088 233.729 26.8984 233.729 27.3848C233.729 27.7188 233.799 28.0059 233.939 28.2461C234.08 28.4805 234.312 28.7031 234.634 28.9141C234.956 29.125 235.536 29.4033 236.374 29.749C237.317 30.1416 238.009 30.5078 238.448 30.8477C238.888 31.1875 239.21 31.5713 239.415 31.999C239.62 32.4268 239.723 32.9307 239.723 33.5107ZM246.648 37H244.548V25.9521H240.769V24.1504H250.428V25.9521H246.648V37Z" fill="#828282"/>
<path d="M17.2771 13.1105L5.38751 25.0001L17.2771 36.8896L20.2229 33.9438L11.2792 25.0001L20.2229 16.0563L17.2771 13.1105ZM32.7229 36.8896L44.6125 25.0001L32.7229 13.1105L29.7771 16.0563L38.7208 25.0001L29.7771 33.9438L32.7229 36.8896Z" fill="black"/>
<path d="M130.055 14.0781C129.531 12.8658 128.776 11.7672 127.832 10.8438C126.887 9.91763 125.773 9.18163 124.551 8.67581C123.283 8.14922 121.923 7.87968 120.551 7.88284C118.625 7.88284 116.746 8.41018 115.113 9.40628C114.723 9.64456 114.352 9.90628 114 10.1914C113.648 9.90628 113.277 9.64456 112.887 9.40628C111.254 8.41018 109.375 7.88284 107.449 7.88284C106.062 7.88284 104.719 8.14846 103.449 8.67581C102.223 9.18362 101.117 9.91409 100.168 10.8438C99.2226 11.7661 98.4675 12.865 97.9453 14.0781C97.4023 15.3399 97.125 16.6797 97.125 18.0586C97.125 19.3594 97.3906 20.7149 97.918 22.0938C98.3594 23.2461 98.9922 24.4414 99.8008 25.6485C101.082 27.5586 102.844 29.5508 105.031 31.5703C108.656 34.918 112.246 37.2305 112.398 37.3242L113.324 37.918C113.734 38.1797 114.262 38.1797 114.672 37.918L115.598 37.3242C115.75 37.2266 119.336 34.918 122.965 31.5703C125.152 29.5508 126.914 27.5586 128.195 25.6485C129.004 24.4414 129.641 23.2461 130.078 22.0938C130.605 20.7149 130.871 19.3594 130.871 18.0586C130.875 16.6797 130.598 15.3399 130.055 14.0781Z" fill="#DB4437"/>
</svg>
