<svg width="600" height="589" viewBox="0 0 600 589" fill="none" xmlns="http://www.w3.org/2000/svg">
<path fill-rule="evenodd" clip-rule="evenodd" d="M406.151 55.774C399.408 47.8616 394.844 38.1649 395.607 27.2994C397.804 -4.00708 441.396 2.87994 449.876 18.6808C458.355 34.4816 457.348 74.5616 446.389 77.3857C442.018 78.5119 432.708 75.7531 423.232 70.0432L429.18 112.11H394.061L406.151 55.774Z" fill="#B28B67"/>
<path fill-rule="evenodd" clip-rule="evenodd" d="M434.387 20.9724C429.621 23.6375 426.23 28.6314 422.147 35.1819C421.153 34.7912 420.07 34.5766 418.937 34.5766C414.088 34.5766 410.157 38.5064 410.157 43.3539C410.157 45.8148 411.17 48.0392 412.802 49.6329C410.77 52.4996 408.494 55.4943 405.885 58.5843C396.149 52.7449 388.908 35.7256 398.203 19.2957C406.201 -13.6146 451.522 6.81242 460.241 1.26196C462.147 13.2045 456 22.8341 434.387 20.9724Z" fill="#191847"/>
<path fill-rule="evenodd" clip-rule="evenodd" d="M392.647 239.11L464.468 420.84L512.638 574.477H531.66L458.017 239.11L392.647 239.11Z" fill="#997659"/>
<path fill-rule="evenodd" clip-rule="evenodd" d="M378.184 239.11C377.419 302.971 366.266 388.95 364.484 392.93C363.296 395.584 322.286 429.333 241.453 494.175L254.554 508.191C349.929 452.597 399.824 421.092 404.237 413.677C410.857 402.555 432.411 300.205 449.715 239.11H378.184Z" fill="#B28B67"/>
<path fill-rule="evenodd" clip-rule="evenodd" d="M239.701 489.497C235.301 491.051 232.27 492.525 230.608 493.92C228.587 495.615 225.919 498.426 222.607 502.353C224.574 504.697 242.258 525.766 275.658 565.559C282.468 562.646 284.604 559.238 282.067 555.336C279.53 551.434 277.454 548.166 275.838 545.532L264.28 505.165C264.058 504.389 263.248 503.939 262.471 504.161C262.457 504.165 262.444 504.169 262.431 504.173L256.264 506.129C251.986 504.135 248.987 502.114 247.268 500.066C245.871 498.402 244.614 495.54 243.498 491.48L243.498 491.48C243.069 489.922 241.458 489.006 239.9 489.434C239.833 489.453 239.766 489.473 239.701 489.497Z" fill="#E4E4E4"/>
<path fill-rule="evenodd" clip-rule="evenodd" d="M504.849 567.384C503.212 571.753 502.394 575.022 502.394 577.191C502.394 579.829 502.833 583.679 503.713 588.74C506.774 588.74 534.285 588.74 586.245 588.74C588.39 581.651 587.152 577.825 582.531 577.259C577.91 576.694 574.072 576.184 571.015 575.728L532.655 558.632C531.917 558.303 531.052 558.634 530.723 559.372C530.717 559.385 530.711 559.398 530.706 559.41L528.24 565.39C523.963 567.385 520.487 568.383 517.812 568.383C515.639 568.383 512.638 567.506 508.81 565.751L508.81 565.751C507.34 565.078 505.603 565.723 504.93 567.192C504.901 567.255 504.874 567.319 504.849 567.384Z" fill="#E4E4E4"/>
<path fill-rule="evenodd" clip-rule="evenodd" d="M440.935 558.652L531.374 548.84L464.348 239.11H383.346L440.935 558.652Z" fill="#69A1AC"/>
<path fill-rule="evenodd" clip-rule="evenodd" d="M260.16 471.563L319.482 541.761C381.964 473.537 418.392 429.022 428.764 408.214C439.137 387.406 448.461 331.038 456.737 239.11H365.544C361.023 319.984 357.975 362.303 356.401 366.066C354.828 369.83 322.747 404.995 260.16 471.563Z" fill="#89C5CC"/>
<path fill-rule="evenodd" clip-rule="evenodd" d="M524.672 221.427L567.676 263.097C580.189 268.399 590.442 274.253 598.434 280.659C600.231 282.812 602.188 286.938 593.731 285.092C585.275 283.246 576.297 281.682 574.708 284.413C573.118 287.145 577.801 291.33 574.864 294.905C572.906 297.288 566.32 289.708 555.107 272.163L510.388 245.975L524.672 221.427ZM314.379 183.713L347.622 183.837C322.303 265.314 308.863 307.975 307.302 311.818C303.789 320.465 311.223 333.634 314.402 340.712C304.048 345.313 305.151 328.271 292.09 334.307C280.169 339.815 271.101 349.797 257.328 341.356C255.634 340.318 253.779 336.41 258.262 333.357C269.432 325.749 285.528 312.435 287.703 308.052C290.669 302.076 299.561 260.629 314.379 183.713Z" fill="#B28B67"/>
<path fill-rule="evenodd" clip-rule="evenodd" d="M415.675 90.0459L428.802 87.8095C449.481 160.418 555.731 209.91 562.254 237.053C564.646 247.007 557.433 252.039 561.159 255.071L544.096 267.477C541.207 264.129 535.041 270.254 522.164 265.969C509.287 261.685 415.675 176.02 415.675 90.0459Z" fill="#DB2721"/>
<path fill-rule="evenodd" clip-rule="evenodd" d="M437.757 99.6989C436.243 195.827 492.188 220.347 479.727 258.91C469.436 290.754 370.94 324.987 353.896 293.772C346.996 281.136 343.866 265.855 343.511 249.24C339.155 262.004 335.71 272.993 333.175 282.206C328.803 298.099 311.854 300.625 311.854 306.748L289.523 300.625C291.038 292.307 280.51 288.257 283.333 269.674C295.98 186.412 329.96 126.058 385.274 88.6117L385.859 80.3034C386.091 77.082 388.886 74.6532 392.109 74.8718L433.435 77.7422C436.66 77.9609 439.093 80.756 438.869 83.98C438.868 83.9817 438.868 83.9835 438.863 83.9849L437.757 99.6989Z" fill="#FF4133"/>
<path fill-rule="evenodd" clip-rule="evenodd" d="M252.756 171.347C259.309 163.655 263.744 154.229 263.003 143.666C260.868 113.233 218.504 119.928 210.263 135.288C202.023 150.648 203.002 189.61 213.652 192.355C217.9 193.45 226.948 190.768 236.156 185.218L230.376 226.111H264.506L252.756 171.347Z" fill="#B28B67"/>
<path fill-rule="evenodd" clip-rule="evenodd" d="M195.143 113.995C195.85 111.51 197.751 109.383 200.313 108.752C200.934 108.599 201.576 108.537 202.215 108.563C202.444 108.572 202.509 108.639 202.616 108.478C202.695 108.359 202.697 108.069 202.73 107.929C202.832 107.495 202.959 107.066 203.116 106.648C203.652 105.222 204.553 103.961 205.639 102.898C207.67 100.91 210.415 99.5379 213.266 99.2897C214.827 99.1539 216.376 99.4074 217.851 99.9151C218.615 100.178 219.356 100.505 220.077 100.867C220.294 100.976 220.999 101.509 221.217 101.475C221.458 101.437 221.942 100.838 222.137 100.688C224.557 98.8318 227.545 98.1019 230.558 98.1238C233.96 98.1494 237.236 98.3194 240.072 100.393C240.673 100.832 241.245 101.313 241.79 101.819C242.076 102.085 242.354 102.362 242.619 102.65C242.779 102.823 242.934 103.001 243.084 103.183C243.339 103.493 243.298 103.595 243.654 103.379C245.019 102.549 246.601 102.161 248.195 102.357C249.141 102.473 250.062 102.757 250.936 103.131C251.234 103.259 251.922 103.766 252.24 103.771C252.554 103.776 253.234 103.306 253.558 103.186C255.309 102.54 257.196 102.38 259.036 102.679C260.935 102.987 262.8 103.744 264.408 104.791C265.182 105.295 265.857 105.852 266.399 106.601C266.633 106.924 266.844 107.266 267.11 107.566C267.265 107.741 267.573 107.921 267.656 108.143C267.606 108.01 269.732 107.191 269.933 107.138C271.001 106.859 272.09 106.916 273.136 107.26C275.104 107.908 276.797 109.36 278.188 110.85C278.902 111.614 279.528 112.46 280.058 113.361C280.313 113.792 280.545 114.236 280.758 114.689C280.861 114.909 280.929 115.183 281.065 115.381C281.24 115.636 281.358 115.641 281.675 115.752C283.286 116.316 284.754 117.271 285.872 118.562C287.003 119.868 287.737 121.476 288.045 123.169C288.063 123.269 288.074 123.682 288.132 123.736C288.212 123.81 288.536 123.777 288.658 123.792C289.083 123.841 289.504 123.916 289.92 124.014C290.686 124.195 291.432 124.462 292.137 124.811C294.888 126.172 296.855 128.723 297.817 131.594C298.827 134.606 298.809 138.058 297.602 141.014C297.407 141.492 297.175 141.955 296.903 142.394C296.735 142.663 296.681 142.664 296.79 142.946C296.911 143.26 297.132 143.565 297.276 143.872C297.745 144.874 298.073 145.937 298.28 147.022C298.62 148.802 298.789 150.673 298.454 152.466C298.298 153.299 298.027 154.113 297.613 154.855C297.402 155.233 297.155 155.592 296.876 155.924C296.731 156.096 296.577 156.261 296.417 156.418C296.325 156.508 296.204 156.587 296.126 156.688C295.935 156.933 295.895 156.732 295.993 157.092C296.131 157.595 296.443 158.092 296.634 158.582C296.831 159.087 297.009 159.598 297.172 160.115C297.501 161.162 297.78 162.227 297.954 163.311C298.289 165.392 298.23 167.609 297.246 169.519C296.825 170.336 296.221 171.052 295.489 171.61C295.131 171.882 294.742 172.117 294.335 172.311C294.126 172.41 293.859 172.452 293.763 172.655C293.661 172.872 293.813 173.305 293.848 173.548C294.15 175.664 294.302 177.886 293.673 179.96C293.094 181.871 291.818 183.557 290.161 184.674C286.948 186.84 282.617 186.718 279.24 184.984C278.36 184.532 277.537 183.971 276.802 183.308C274.932 185.826 271.083 185.747 268.35 185.029C264.944 184.135 262.211 181.767 260.637 178.656C258.484 181.277 253.966 180.426 252.473 177.583C252.107 176.887 251.891 176.12 251.784 175.344C251.728 174.936 251.763 174.525 251.721 174.12C251.667 173.604 251.323 173.103 251.125 172.603C250.739 171.632 250.499 170.629 250.489 169.581C250.484 169.034 250.553 168.501 250.605 167.959C250.652 167.47 250.516 167.015 250.439 166.533C251.313 166.677 252.377 166.441 253.2 166.188C254.007 165.94 254.764 165.285 255.334 164.687C256.657 163.299 257.466 161.479 258.019 159.668C259.232 155.693 258.735 150.924 254.737 148.742C252.874 147.726 247.294 147.729 245.076 148.232C242.743 148.76 240.099 153.907 239.969 154.39C239.888 154.69 239.929 155.06 239.654 155.26C239.049 155.699 238.052 154.937 237.606 154.562C236.837 153.913 236.288 153.05 235.813 152.176C234.777 150.271 233.942 148.228 233.353 146.142C232.898 144.534 232.607 142.876 232.013 141.309C231.422 139.75 230.489 138.356 229.04 137.473C227.463 136.512 225.656 136.006 223.925 135.402C222.209 134.803 220.523 134.072 219.193 132.802C218.901 132.523 218.617 132.226 218.381 131.897C218.195 131.638 218.012 131.141 217.729 130.976C217.289 130.721 216.646 131.386 216.266 131.628C214.388 132.82 212.821 134.484 211.558 136.301C210.301 138.108 209.27 139.847 208.432 141.865C207.811 143.361 207.423 145.278 206.33 146.504C205.842 147.052 202.215 147.383 201.04 146.905C199.865 146.427 198.549 145.186 198.154 144.408C197.751 143.611 197.654 142.736 197.827 141.865C197.928 141.352 198.135 140.873 198.249 140.369C198.344 139.946 198.431 139.546 198.637 139.158C199.027 138.423 199.694 137.895 200.498 137.675C199.661 136.903 198.968 135.98 198.488 134.948C197.989 133.876 197.567 132.572 197.447 131.395C197.349 130.439 197.5 129.449 198.023 128.628C198.572 127.766 199.544 127.204 200.385 126.667C199.1 125.661 198 124.438 197.096 123.085C195.338 120.452 194.25 117.133 195.143 113.995Z" fill="#191847"/>
<path fill-rule="evenodd" clip-rule="evenodd" d="M359.785 403.87H196.246C183.68 403.87 173.493 414.057 173.493 426.623V557.454C173.493 570.02 183.68 580.207 196.246 580.207H359.785C372.351 580.207 382.538 570.02 382.538 557.454V426.623C382.538 414.057 372.351 403.87 359.785 403.87ZM337.032 443.688C340.173 443.688 342.72 446.235 342.72 449.376V534.701C342.72 537.842 340.173 540.389 337.032 540.389H218.999C215.858 540.389 213.311 537.842 213.311 534.701V449.376C213.311 446.235 215.858 443.688 218.999 443.688H337.032Z" fill="#C5CFD6"/>
<path fill-rule="evenodd" clip-rule="evenodd" d="M71.8016 575.457C90.0224 535.13 103.199 500.014 108.489 481.487C117.545 449.764 124.435 421.85 126.176 411.425C130.328 386.566 94.2334 385.119 89.4624 397.473C82.2413 416.172 69.6349 477.608 54.4874 570.405L71.8016 575.457ZM283.152 448.898C266.434 442.29 207.89 421.61 179.655 415.76C171.541 414.079 163.677 412.517 156.283 411.106C134.306 406.91 122.921 446.557 144.087 449.603C196.799 457.19 271.527 465.024 277.922 465.903C286.885 467.135 293.658 453.051 283.152 448.898Z" fill="#B28B67"/>
<path fill-rule="evenodd" clip-rule="evenodd" d="M142.795 400.196L233.22 354.164V344.143H222.466C134.984 366.435 90.2799 380.721 88.3554 387.001C88.3347 387.069 88.3158 387.136 88.2985 387.204C88.2545 387.262 88.2112 387.32 88.1686 387.378C70.8314 411.222 60.4482 527.629 57.0403 536.345L90.2623 541.301C102.971 494.176 143.63 461.348 142.55 404.907C142.841 403.251 142.915 401.681 142.795 400.196Z" fill="#1F28CF"/>
<path fill-rule="evenodd" clip-rule="evenodd" d="M225.707 427.534C233.981 425.878 241.6 424.4 248.12 423.256C290.232 415.87 302.513 393.327 295.252 344.143H217.66C204.986 347.784 139.116 375.407 104.94 390.099C82.3202 399.823 89.4506 434.878 102.26 444C102.33 444.56 102.56 444.94 102.971 445.11C171.876 473.669 226.387 458.684 244.597 463.472L253.02 436.903L225.707 427.534Z" fill="#2B44FF"/>
<path fill-rule="evenodd" clip-rule="evenodd" d="M277.436 444.675C281.95 445.106 285.155 445.785 287.05 446.709C289.355 447.833 292.531 449.857 296.579 452.782C295.275 455.456 283.554 479.486 261.418 524.872C254.311 523.725 251.495 521.013 252.97 516.736C254.444 512.459 255.634 508.888 256.538 506.024L257.943 465.232C257.97 464.447 258.628 463.833 259.413 463.86C259.426 463.86 259.44 463.861 259.453 463.862L265.728 464.256C269.294 461.37 271.647 458.759 272.786 456.423C273.712 454.525 274.224 451.53 274.322 447.438L274.322 447.438C274.359 445.867 275.663 444.625 277.233 444.663C277.301 444.664 277.368 444.668 277.436 444.675Z" fill="#E4E4E4"/>
<path fill-rule="evenodd" clip-rule="evenodd" d="M80.0939 567.98C81.6849 572.227 82.4804 575.405 82.4804 577.513C82.4804 580.078 82.0532 583.82 81.1987 588.74C78.2238 588.74 51.488 588.74 0.991112 588.74C-1.0932 581.849 0.109985 578.129 4.60067 577.58C9.09135 577.03 12.8218 576.534 15.7921 576.091L53.0719 559.472C53.7892 559.152 54.63 559.474 54.9498 560.192C54.9552 560.204 54.9605 560.216 54.9656 560.229L57.362 566.042C61.5192 567.981 64.8973 568.951 67.4964 568.951C69.6081 568.951 72.5244 568.098 76.2453 566.393L76.2453 566.393C77.6732 565.738 79.3614 566.365 80.016 567.793C80.0442 567.854 80.0702 567.917 80.0939 567.98Z" fill="#E4E4E4"/>
<path fill-rule="evenodd" clip-rule="evenodd" d="M150.677 321.564L110.392 360.863C98.671 365.863 89.0671 371.383 81.5805 377.425C79.8969 379.456 78.064 383.347 85.9853 381.606C93.9066 379.864 102.317 378.389 103.806 380.965C105.295 383.541 100.908 387.489 103.659 390.86C105.494 393.108 111.663 385.959 122.166 369.413L164.057 344.715L150.677 321.564ZM329.483 327.106L299.766 327.223C318.115 386.458 328.021 417.887 329.483 421.512C332.774 429.666 325.811 442.086 322.833 448.761C332.531 453.1 331.498 437.028 343.733 442.72C354.9 447.916 363.395 457.329 376.297 449.368C377.883 448.39 379.621 444.704 375.421 441.825C364.958 434.65 349.88 422.093 347.842 417.96C345.064 412.324 338.945 382.039 329.483 327.106Z" fill="#B28B67"/>
<path fill-rule="evenodd" clip-rule="evenodd" d="M245.031 202.407L232.734 200.298C211.563 253.186 174.6 301.24 121.846 344.463L161.709 392.893C214.457 331.351 246.971 267.855 245.031 202.407Z" fill="#095832"/>
<path fill-rule="evenodd" clip-rule="evenodd" d="M298.636 356.941H189.136C214.505 295.259 227.189 242.861 227.189 199.746L260.22 194.825C286.179 236.575 293.509 287.977 298.636 356.941Z" fill="#DDE3E9"/>
<path fill-rule="evenodd" clip-rule="evenodd" d="M260.919 194.848C260.915 194.84 260.91 194.833 260.906 194.825H258.75C256.17 194.914 252.24 195.074 246.961 195.305L238.979 218.114C238.135 245.923 233.205 301.967 224.189 386.245H295.968C295.78 392.065 295.469 397.94 295.037 403.87H348.408C340.425 313.801 311.271 244.12 260.945 194.825L260.919 194.848V194.848Z" fill="#0F9D58"/>
<path fill-rule="evenodd" clip-rule="evenodd" d="M291.226 311.766C289.184 348.05 284.069 373.063 275.883 386.805H295.949C296.828 360.7 295.254 335.687 291.226 311.766V311.766Z" fill="black" fill-opacity="0.1"/>
<path fill-rule="evenodd" clip-rule="evenodd" d="M279.991 342.721L244.597 326.266V342.721H279.991Z" fill="white" fill-opacity="0.2"/>
</svg>
